{
    "asset": {
        "generator": "Khronos glTF Blender I/O v3.6.27",
        "version": "2.0"
    },
    "scene": 0,
    "scenes": [
        {
            "name": "Scene",
            "nodes": [
                0
            ]
        }
    ],
    "nodes": [
        {
            "mesh": 0,
            "name": "vcbjfbu_LOD0_TIER1_000",
            "rotation": [
                0.7071068286895752,
                0,
                0,
                0.7071068286895752
            ],
            "scale": [
                0.009999999776482582,
                0.009999999776482582,
                0.009999999776482582
            ]
        }
    ],
    "materials": [
        {
            "doubleSided": true,
            "name": "MI_vcbjfbu",
            "normalTexture": {
                "index": 0
            },
            "occlusionTexture": {
                "index": 1
            },
            "pbrMetallicRoughness": {
                "baseColorTexture": {
                    "index": 2
                },
                "metallicRoughnessTexture": {
                    "index": 1
                }
            }
        }
    ],
    "meshes": [
        {
            "name": "S_vcbjfbu_tier_1",
            "primitives": [
                {
                    "attributes": {
                        "POSITION": 0,
                        "NORMAL": 1,
                        "TEXCOORD_0": 2,
                        "TANGENT": 3
                    },
                    "indices": 4,
                    "material": 0
                }
            ]
        }
    ],
    "textures": [
        {
            "sampler": 0,
            "source": 0
        },
        {
            "sampler": 0,
            "source": 1
        },
        {
            "sampler": 0,
            "source": 2
        },
        {
            "sampler": 0,
            "source": 3
        }
    ],
    "images": [
        {
            "mimeType": "image/png",
            "name": "T_vcbjfbu_4K_N",
            "uri": "Textures/T_vcbjfbu_4K_N.png"
        },
        {
            "mimeType": "image/png",
            "name": "T_vcbjfbu_4K_ORM",
            "uri": "Textures/T_vcbjfbu_4K_ORM.png",
            "extras": {
                "compression": "mask"
            }
        },
        {
            "mimeType": "image/png",
            "name": "T_vcbjfbu_4K_B",
            "uri": "Textures/T_vcbjfbu_4K_B.png"
        },
        {
            "mimeType": "image/png",
            "name": "T_vcbjfbu_4K_H",
            "uri": "Textures/T_vcbjfbu_4K_H.png",
            "extras": {
                "textureSlot": "HeightTexture",
                "compression": "displacement"
            }
        }
    ],
    "accessors": [
        {
            "bufferView": 0,
            "componentType": 5126,
            "count": 2757,
            "max": [
                4.003669738769531,
                4.264651775360107,
                0.0527174212038517
            ],
            "min": [
                -4.014046669006348,
                -4.25108003616333,
                -3.3309285640716553
            ],
            "type": "VEC3"
        },
        {
            "bufferView": 1,
            "componentType": 5126,
            "count": 2757,
            "type": "VEC3"
        },
        {
            "bufferView": 2,
            "componentType": 5126,
            "count": 2757,
            "type": "VEC2"
        },
        {
            "bufferView": 3,
            "componentType": 5126,
            "count": 2757,
            "type": "VEC4"
        },
        {
            "bufferView": 4,
            "componentType": 5123,
            "count": 15072,
            "type": "SCALAR"
        }
    ],
    "bufferViews": [
        {
            "buffer": 0,
            "byteLength": 33084,
            "byteOffset": 0,
            "target": 34962
        },
        {
            "buffer": 0,
            "byteLength": 33084,
            "byteOffset": 33084,
            "target": 34962
        },
        {
            "buffer": 0,
            "byteLength": 22056,
            "byteOffset": 66168,
            "target": 34962
        },
        {
            "buffer": 0,
            "byteLength": 44112,
            "byteOffset": 88224,
            "target": 34962
        },
        {
            "buffer": 0,
            "byteLength": 30144,
            "byteOffset": 132336,
            "target": 34963
        }
    ],
    "samplers": [
        {
            "magFilter": 9729,
            "minFilter": 9987
        }
    ],
    "buffers": [
        {
            "byteLength": 162480,
            "uri": "vcbjfbu_tier_1.bin"
        }
    ]
}